<?xml version="1.0" encoding="utf-8"?>
<!-- Generator: Adobe Illustrator 25.4.7, SVG Export Plug-In . SVG Version: 6.00 Build 0)  -->
<svg version="1.1" id="Layer_1" xmlns="http://www.w3.org/2000/svg" xmlns:xlink="http://www.w3.org/1999/xlink" x="0px" y="0px"
	 viewBox="0 0 132 132" style="enable-background:new 0 0 132 132;" xml:space="preserve">
<style type="text/css">
	.st0{fill:#231F20;}
	.st1{fill:#FFFFFF;}
</style>
<rect x="-0.5" y="141" width="133" height="133"/>
<g>
	<rect x="-701.5" y="57.17" class="st0" width="4.46" height="32.96"/>
	<path class="st0" d="M-699.23,43.55c-0.92,0-1.7,0.3-2.32,0.91c-0.63,0.61-0.94,1.35-0.94,2.23c0,0.88,0.31,1.63,0.94,2.26
		c0.63,0.63,1.4,0.94,2.32,0.94c0.96,0,1.75-0.31,2.35-0.94c0.61-0.63,0.91-1.4,0.91-2.32c0-0.88-0.31-1.61-0.94-2.2
		C-697.54,43.84-698.31,43.55-699.23,43.55z"/>
	<path class="st0" d="M-660.72,58.4c-2.03-1.02-4.39-1.54-7.06-1.54c-3.18,0-5.92,0.68-8.22,2.04c-1.85,1.1-3.29,2.53-4.33,4.29
		v-6.01h-4.27v32.96h4.46V72.81c0-2.51,0.47-4.66,1.41-6.44c0.94-1.78,2.28-3.14,4.02-4.08c1.74-0.94,3.78-1.41,6.12-1.41
		c3.14,0,5.58,0.89,7.31,2.67c1.74,1.78,2.61,4.41,2.61,7.88v18.71h4.46V70.99c0-3.18-0.58-5.82-1.73-7.91
		C-657.1,60.98-658.69,59.42-660.72,58.4z"/>
	<path class="st0" d="M-618.43,62.35c1.88-1.07,4-1.6,6.34-1.6c1.97,0,3.79,0.4,5.46,1.19c1.67,0.8,3.08,2.03,4.21,3.7l3.33-2.26
		c-1.3-2.18-3.08-3.81-5.34-4.9c-2.26-1.09-4.79-1.63-7.6-1.63c-3.27,0-6.18,0.71-8.76,2.14c-2.57,1.42-4.59,3.39-6.06,5.9
		c-1.47,2.51-2.2,5.42-2.2,8.73c0,3.26,0.73,6.16,2.2,8.7c1.46,2.53,3.48,4.52,6.06,5.96s5.49,2.17,8.76,2.17
		c2.8,0,5.34-0.55,7.6-1.66c2.26-1.11,4.04-2.73,5.34-4.87l-3.33-2.26c-1.13,1.63-2.53,2.85-4.21,3.64
		c-1.67,0.8-3.49,1.19-5.46,1.19c-2.34,0-4.46-0.53-6.34-1.6c-1.88-1.07-3.37-2.56-4.46-4.49c-1.09-1.92-1.63-4.18-1.63-6.78
		s0.54-4.86,1.63-6.78C-621.8,64.92-620.31,63.42-618.43,62.35z"/>
	<rect x="-590.87" y="43.55" class="st0" width="4.46" height="46.59"/>
	<path class="st0" d="M-548.67,74.44c0,2.51-0.45,4.67-1.35,6.47c-0.9,1.8-2.2,3.17-3.89,4.11c-1.69,0.94-3.69,1.41-6,1.41
		c-3.14,0-5.58-0.89-7.31-2.67c-1.74-1.78-2.61-4.43-2.61-7.94V57.17h-4.46v19.15c0,3.14,0.58,5.76,1.73,7.85
		c1.15,2.09,2.77,3.66,4.87,4.71c2.09,1.05,4.54,1.57,7.35,1.57c2.93,0,5.49-0.68,7.69-2.04c1.77-1.1,3.15-2.56,4.18-4.35v6.08h4.27
		V57.17h-4.46V74.44z"/>
	<path class="st0" d="M-510.72,58.96c-2.41-1.4-5.16-2.1-8.26-2.1c-3.06,0-5.81,0.72-8.26,2.17c-2.45,1.44-4.37,3.42-5.78,5.93
		c-1.4,2.51-2.1,5.4-2.1,8.67c0,3.26,0.73,6.16,2.2,8.7c1.46,2.53,3.49,4.52,6.09,5.96c2.59,1.44,5.61,2.17,9.04,2.17
		c2.64,0,5.06-0.46,7.25-1.38c2.2-0.92,4.03-2.26,5.49-4.02l-2.51-2.89c-1.26,1.47-2.75,2.55-4.49,3.26
		c-1.74,0.71-3.61,1.07-5.62,1.07c-2.55,0-4.83-0.53-6.81-1.6c-1.99-1.07-3.54-2.55-4.65-4.46c-0.93-1.59-1.44-3.41-1.6-5.43h27.68
		c0-0.25,0.01-0.49,0.03-0.72c0.02-0.23,0.03-0.45,0.03-0.66c0-3.31-0.69-6.23-2.07-8.76C-506.42,62.33-508.31,60.37-510.72,58.96z
		 M-529.27,66.65c1-1.88,2.41-3.35,4.21-4.4c1.8-1.05,3.83-1.57,6.09-1.57c2.3,0,4.33,0.52,6.09,1.57c1.76,1.05,3.15,2.5,4.18,4.36
		c0.83,1.51,1.31,3.2,1.47,5.05h-23.46C-530.54,69.83-530.07,68.15-529.27,66.65z"/>
	<path class="st0" d="M-459.17,74.09c-1.28-0.61-2.68-1.09-4.21-1.44c-1.53-0.36-3.06-0.66-4.58-0.91
		c-1.53-0.25-2.93-0.57-4.21-0.97c-1.28-0.4-2.3-0.95-3.08-1.66c-0.77-0.71-1.16-1.7-1.16-2.95c0-1.59,0.7-2.9,2.1-3.92
		c1.4-1.03,3.59-1.54,6.56-1.54c1.67,0,3.35,0.22,5.02,0.66s3.24,1.16,4.71,2.17l1.95-3.58c-1.38-0.92-3.14-1.66-5.27-2.23
		c-2.13-0.56-4.27-0.85-6.4-0.85c-2.8,0-5.18,0.41-7.13,1.22c-1.95,0.82-3.42,1.94-4.43,3.36c-1,1.42-1.51,3.04-1.51,4.83
		c0,1.88,0.39,3.39,1.16,4.52c0.77,1.13,1.79,2.02,3.05,2.67c1.26,0.65,2.65,1.14,4.17,1.48c1.53,0.34,3.07,0.63,4.61,0.88
		c1.55,0.25,2.95,0.56,4.21,0.91c1.26,0.36,2.27,0.88,3.05,1.57c0.77,0.69,1.16,1.64,1.16,2.86c0,1.63-0.69,2.94-2.07,3.92
		c-1.38,0.98-3.64,1.48-6.78,1.48c-2.3,0-4.5-0.37-6.59-1.1c-2.09-0.73-3.81-1.6-5.15-2.6l-2.01,3.52c1.38,1.17,3.29,2.15,5.71,2.92
		c2.43,0.77,5,1.16,7.72,1.16c2.89,0,5.35-0.39,7.38-1.16c2.03-0.77,3.58-1.86,4.65-3.27c1.07-1.4,1.6-3.07,1.6-4.99
		c0-1.8-0.39-3.25-1.16-4.36C-456.87,75.56-457.9,74.7-459.17,74.09z"/>
	<path class="st0" d="M-444.51,43.55c-0.92,0-1.69,0.3-2.32,0.91c-0.63,0.61-0.94,1.35-0.94,2.23c0,0.88,0.31,1.63,0.94,2.26
		c0.63,0.63,1.4,0.94,2.32,0.94c0.96,0,1.75-0.31,2.35-0.94c0.61-0.63,0.91-1.4,0.91-2.32c0-0.88-0.31-1.61-0.94-2.2
		C-442.82,43.84-443.59,43.55-444.51,43.55z"/>
	<rect x="-446.77" y="57.17" class="st0" width="4.46" height="32.96"/>
	<path class="st0" d="M-407.75,59.03c-2.53-1.44-5.43-2.17-8.7-2.17c-3.22,0-6.09,0.71-8.6,2.14c-2.51,1.42-4.5,3.39-5.96,5.9
		c-1.47,2.51-2.2,5.42-2.2,8.73c0,3.22,0.73,6.11,2.2,8.66c1.46,2.55,3.45,4.55,5.96,6s5.38,2.17,8.6,2.17
		c3.22,0,6.11-0.72,8.66-2.17c2.55-1.44,4.55-3.43,6-5.96c1.44-2.53,2.17-5.43,2.17-8.7c0-3.31-0.72-6.21-2.17-8.7
		C-403.23,62.44-405.22,60.47-407.75,59.03z M-405.74,80.37c-1.07,1.95-2.52,3.45-4.36,4.52c-1.84,1.07-3.95,1.6-6.34,1.6
		c-2.34,0-4.43-0.53-6.25-1.6c-1.82-1.07-3.28-2.57-4.36-4.52c-1.09-1.95-1.63-4.2-1.63-6.75c0-2.6,0.54-4.86,1.63-6.78
		c1.09-1.92,2.55-3.42,4.4-4.49c1.84-1.07,3.93-1.6,6.28-1.6c2.34,0,4.44,0.53,6.28,1.6c1.84,1.07,3.3,2.56,4.36,4.49
		c1.07,1.93,1.6,4.19,1.6,6.78C-404.14,76.18-404.67,78.43-405.74,80.37z"/>
	<path class="st0" d="M-361.86,63.08c-1.15-2.09-2.74-3.65-4.77-4.68c-2.03-1.02-4.39-1.54-7.06-1.54c-3.18,0-5.92,0.68-8.22,2.04
		c-1.85,1.1-3.29,2.53-4.33,4.29v-6.01h-4.27v32.96h4.46V72.81c0-2.51,0.47-4.66,1.41-6.44c0.94-1.78,2.28-3.14,4.02-4.08
		c1.74-0.94,3.78-1.41,6.12-1.41c3.14,0,5.58,0.89,7.31,2.67c1.74,1.78,2.61,4.41,2.61,7.88v18.71h4.46V70.99
		C-360.13,67.81-360.71,65.17-361.86,63.08z"/>
	<circle class="st0" cx="-641.28" cy="70.82" r="3.21"/>
	<circle class="st0" cx="-491.42" cy="70.82" r="3.21"/>
</g>
<path class="st0" d="M-846.33,64.85l8.98,60.42l0.57-0.08h41.05l0.58-0.41l19.82-55.69l28.89,13.7l0.38-0.44l11.26-15.7l0.3-0.43
	l-0.25-0.44l0,0l-0.02-0.01l-25.4-39.51v-18l-0.96-0.51l-10.9,7.25l-41.83,15.15l-0.24,0.16l-32.07,34.04 M-735.98,66.17
	l-10.35,14.43l-13.5-51.53L-735.98,66.17z M-771.47,16.09l0.51-0.19l-0.05-0.12l9.59-6.38v16.63l-77.68,35.06L-771.47,16.09z
	 M-813.3,31.25l36.94-13.38l-65.22,43.4L-813.3,31.25z M-845.04,65.13l82.24-37.12l-73.63,95.04L-845.04,65.13z M-796.17,123.95
	h-39.4l72.9-94.1L-776.25,68l-0.25,0.53l0.05,0.03L-796.17,123.95z M-761.09,29.11l13.57,51.8l-27.38-12.99L-761.09,29.11z"/>
<g>
	<rect x="-302.82" y="109.88" class="st0" width="2.97" height="21.95"/>
	<path class="st0" d="M-301.32,100.81c-0.61,0-1.13,0.2-1.55,0.61c-0.42,0.4-0.63,0.9-0.63,1.48c0,0.59,0.21,1.09,0.63,1.51
		c0.42,0.42,0.93,0.63,1.55,0.63c0.64,0,1.16-0.21,1.57-0.63c0.4-0.42,0.61-0.93,0.61-1.55c0-0.59-0.21-1.07-0.63-1.46
		C-300.19,101-300.71,100.81-301.32,100.81z"/>
	<path class="st0" d="M-275.67,110.7c-1.35-0.68-2.92-1.02-4.7-1.02c-2.12,0-3.94,0.45-5.48,1.36c-1.23,0.73-2.19,1.68-2.89,2.86
		v-4.01h-2.84v21.95h2.97v-11.54c0-1.67,0.31-3.1,0.94-4.29c0.63-1.18,1.52-2.09,2.68-2.72c1.16-0.63,2.52-0.94,4.08-0.94
		c2.09,0,3.71,0.59,4.87,1.78c1.16,1.19,1.74,2.93,1.74,5.25v12.46h2.97v-12.75c0-2.12-0.38-3.87-1.15-5.27
		C-273.26,112.42-274.32,111.38-275.67,110.7z"/>
	<path class="st0" d="M-247.51,113.33c1.25-0.71,2.66-1.07,4.22-1.07c1.31,0,2.52,0.27,3.64,0.79c1.11,0.53,2.05,1.35,2.8,2.47
		l2.22-1.51c-0.86-1.45-2.05-2.54-3.55-3.26c-1.51-0.72-3.19-1.09-5.06-1.09c-2.17,0-4.12,0.47-5.83,1.42
		c-1.71,0.95-3.06,2.26-4.03,3.93c-0.98,1.67-1.46,3.61-1.46,5.81c0,2.17,0.49,4.1,1.46,5.79c0.98,1.69,2.32,3.01,4.03,3.97
		s3.66,1.44,5.83,1.44c1.87,0,3.55-0.37,5.06-1.11c1.51-0.74,2.69-1.82,3.55-3.24l-2.22-1.51c-0.75,1.09-1.69,1.9-2.8,2.42
		c-1.11,0.53-2.33,0.79-3.64,0.79c-1.56,0-2.97-0.36-4.22-1.07c-1.25-0.71-2.24-1.71-2.97-2.99c-0.73-1.28-1.09-2.79-1.09-4.52
		s0.36-3.23,1.09-4.52C-249.75,115.04-248.76,114.04-247.51,113.33z"/>
	<rect x="-229.16" y="100.81" class="st0" width="2.97" height="31.02"/>
	<path class="st0" d="M-201.06,121.38c0,1.67-0.3,3.11-0.9,4.31c-0.6,1.2-1.46,2.11-2.59,2.74c-1.13,0.63-2.46,0.94-3.99,0.94
		c-2.09,0-3.71-0.59-4.87-1.78c-1.16-1.18-1.74-2.95-1.74-5.29v-12.42h-2.97v12.75c0,2.09,0.38,3.83,1.15,5.23
		c0.77,1.39,1.85,2.44,3.24,3.14c1.39,0.7,3.02,1.05,4.89,1.05c1.95,0,3.66-0.45,5.12-1.36c1.18-0.73,2.1-1.7,2.78-2.9v4.05h2.84
		v-21.95h-2.97V121.38z"/>
	<path class="st0" d="M-175.79,111.07c-1.6-0.93-3.44-1.4-5.5-1.4c-2.04,0-3.87,0.48-5.5,1.44c-1.63,0.96-2.91,2.28-3.85,3.95
		c-0.93,1.67-1.4,3.6-1.4,5.77c0,2.17,0.49,4.1,1.46,5.79c0.98,1.69,2.33,3.01,4.06,3.97c1.73,0.96,3.73,1.44,6.02,1.44
		c1.76,0,3.37-0.31,4.83-0.92c1.46-0.61,2.68-1.51,3.66-2.68l-1.67-1.92c-0.84,0.98-1.83,1.7-2.99,2.17
		c-1.16,0.47-2.4,0.71-3.74,0.71c-1.7,0-3.21-0.36-4.54-1.07c-1.32-0.71-2.36-1.7-3.09-2.97c-0.62-1.06-0.96-2.27-1.06-3.62h18.43
		c0-0.17,0.01-0.33,0.02-0.48c0.01-0.15,0.02-0.3,0.02-0.44c0-2.2-0.46-4.15-1.38-5.83C-172.92,113.32-174.18,112.01-175.79,111.07z
		 M-188.14,116.2c0.67-1.25,1.6-2.23,2.8-2.93c1.2-0.7,2.55-1.05,4.06-1.05c1.53,0,2.88,0.35,4.06,1.05c1.17,0.7,2.1,1.67,2.78,2.91
		c0.55,1.01,0.87,2.13,0.98,3.37h-15.62C-188.98,118.31-188.67,117.19-188.14,116.2z"/>
	<path class="st0" d="M-141.46,121.15c-0.85-0.4-1.78-0.72-2.8-0.96c-1.02-0.24-2.03-0.44-3.05-0.61c-1.02-0.17-1.95-0.38-2.8-0.65
		c-0.85-0.26-1.53-0.63-2.05-1.11c-0.52-0.47-0.77-1.13-0.77-1.96c0-1.06,0.47-1.93,1.4-2.61c0.93-0.68,2.39-1.02,4.37-1.02
		c1.11,0,2.23,0.15,3.34,0.44c1.11,0.29,2.16,0.77,3.14,1.44l1.3-2.38c-0.92-0.61-2.09-1.11-3.51-1.48
		c-1.42-0.38-2.84-0.56-4.26-0.56c-1.87,0-3.45,0.27-4.75,0.82c-1.3,0.54-2.28,1.29-2.95,2.24c-0.67,0.95-1,2.02-1,3.22
		c0,1.25,0.26,2.26,0.77,3.01c0.52,0.75,1.19,1.35,2.03,1.78c0.84,0.43,1.76,0.76,2.78,0.98c1.02,0.22,2.04,0.42,3.07,0.59
		c1.03,0.17,1.97,0.37,2.8,0.61c0.84,0.24,1.51,0.59,2.03,1.05c0.52,0.46,0.77,1.09,0.77,1.9c0,1.09-0.46,1.96-1.38,2.61
		c-0.92,0.66-2.42,0.98-4.52,0.98c-1.53,0-3-0.24-4.39-0.73c-1.39-0.49-2.54-1.07-3.43-1.73l-1.34,2.34
		c0.92,0.78,2.19,1.43,3.8,1.94c1.62,0.52,3.33,0.77,5.14,0.77c1.92,0,3.56-0.26,4.91-0.77c1.35-0.52,2.38-1.24,3.09-2.17
		c0.71-0.93,1.07-2.04,1.07-3.32c0-1.2-0.26-2.17-0.77-2.91C-139.93,122.13-140.61,121.55-141.46,121.15z"/>
	<path class="st0" d="M-131.7,100.81c-0.61,0-1.13,0.2-1.55,0.61c-0.42,0.4-0.63,0.9-0.63,1.48c0,0.59,0.21,1.09,0.63,1.51
		c0.42,0.42,0.93,0.63,1.55,0.63c0.64,0,1.16-0.21,1.57-0.63c0.4-0.42,0.61-0.93,0.61-1.55c0-0.59-0.21-1.07-0.63-1.46
		C-130.57,101-131.09,100.81-131.7,100.81z"/>
	<rect x="-133.2" y="109.88" class="st0" width="2.97" height="21.95"/>
	<path class="st0" d="M-107.22,111.12c-1.69-0.96-3.62-1.44-5.79-1.44c-2.15,0-4.06,0.47-5.73,1.42c-1.67,0.95-3,2.26-3.97,3.93
		c-0.98,1.67-1.46,3.61-1.46,5.81c0,2.15,0.49,4.07,1.46,5.77c0.98,1.7,2.3,3.03,3.97,3.99s3.58,1.44,5.73,1.44
		c2.15,0,4.07-0.48,5.77-1.44c1.7-0.96,3.03-2.29,3.99-3.97c0.96-1.69,1.44-3.62,1.44-5.79c0-2.2-0.48-4.13-1.44-5.79
		C-104.21,113.39-105.53,112.08-107.22,111.12z M-105.88,125.33c-0.71,1.3-1.68,2.3-2.91,3.01c-1.23,0.71-2.63,1.07-4.22,1.07
		c-1.56,0-2.95-0.36-4.16-1.07c-1.21-0.71-2.18-1.71-2.91-3.01c-0.73-1.3-1.09-2.79-1.09-4.49c0-1.73,0.36-3.23,1.09-4.52
		c0.72-1.28,1.7-2.28,2.93-2.99c1.23-0.71,2.62-1.07,4.18-1.07c1.56,0,2.95,0.36,4.18,1.07c1.23,0.71,2.2,1.71,2.91,2.99
		c0.71,1.28,1.07,2.79,1.07,4.52C-104.81,122.54-105.17,124.04-105.88,125.33z"/>
	<path class="st0" d="M-76.66,113.81c-0.77-1.39-1.83-2.43-3.18-3.12c-1.35-0.68-2.92-1.02-4.7-1.02c-2.12,0-3.94,0.45-5.48,1.36
		c-1.23,0.73-2.19,1.68-2.88,2.86v-4.01h-2.84v21.95h2.97v-11.54c0-1.67,0.31-3.1,0.94-4.29c0.63-1.18,1.52-2.09,2.68-2.72
		c1.16-0.63,2.51-0.94,4.08-0.94c2.09,0,3.71,0.59,4.87,1.78c1.16,1.19,1.74,2.93,1.74,5.25v12.46h2.97v-12.75
		C-75.51,116.96-75.89,115.21-76.66,113.81z"/>
	<circle class="st0" cx="-262.73" cy="118.97" r="2.14"/>
	<circle class="st0" cx="-162.93" cy="118.97" r="2.14"/>
</g>
<path class="st0" d="M-241.24,25.92l9.12,61.31l0.57-0.09h41.66l0.59-0.42l20.12-56.51l29.32,13.9l0.38-0.45l11.43-15.93l0.3-0.44
	l-0.26-0.45l0,0l-0.02-0.01l-25.78-40.1v-18.26l-0.97-0.52l-11.06,7.36l-42.45,15.38l-0.24,0.16l-32.54,34.54 M-129.26,27.26
	l-10.5,14.64l-13.7-52.29L-129.26,27.26z M-165.28-23.56l0.52-0.19l-0.05-0.13l9.74-6.48v16.87l-78.83,35.58L-165.28-23.56z
	 M-207.73-8.18l37.49-13.58l-66.18,44.03L-207.73-8.18z M-239.93,26.2l83.45-37.67l-74.72,96.44L-239.93,26.2z M-190.33,85.89
	h-39.98l73.98-95.48l-13.78,38.71l-0.26,0.54l0.05,0.03L-190.33,85.89z M-154.74-10.35l13.77,52.56l-27.79-13.18L-154.74-10.35z"/>
<path class="st0" d="M25.62,61.74L32.35,107l0.42-0.06h30.75l0.44-0.31L78.8,64.92l21.64,10.26l0.28-0.33l8.43-11.76l0.22-0.32
	l-0.19-0.33l0,0l-0.01-0.01l-19.03-29.6V19.34l-0.72-0.38l-8.16,5.43L49.94,35.74l-0.18,0.12l-24.02,25.5 M108.28,62.73l-7.75,10.81
	l-10.11-38.6L108.28,62.73z M81.69,25.22l0.38-0.14l-0.03-0.09l7.19-4.78v12.46L31.04,58.93L81.69,25.22z M50.35,36.57l27.67-10.02
	L29.18,59.05L50.35,36.57z M26.58,61.95l61.6-27.81l-55.15,71.19L26.58,61.95z M63.19,106.01H33.68l54.61-70.48L78.11,64.1
	l-0.19,0.4l0.04,0.02L63.19,106.01z M89.46,34.97l10.16,38.8l-20.51-9.73L89.46,34.97z"/>
<g>
	<rect x="-701.5" y="210.17" class="st1" width="4.46" height="32.96"/>
	<path class="st1" d="M-699.23,196.55c-0.92,0-1.7,0.3-2.32,0.91c-0.63,0.61-0.94,1.35-0.94,2.23c0,0.88,0.31,1.63,0.94,2.26
		c0.63,0.63,1.4,0.94,2.32,0.94c0.96,0,1.75-0.31,2.35-0.94c0.61-0.63,0.91-1.4,0.91-2.32c0-0.88-0.31-1.61-0.94-2.2
		C-697.54,196.84-698.31,196.55-699.23,196.55z"/>
	<path class="st1" d="M-660.72,211.4c-2.03-1.02-4.39-1.54-7.06-1.54c-3.18,0-5.92,0.68-8.22,2.04c-1.85,1.1-3.29,2.53-4.33,4.29
		v-6.01h-4.27v32.96h4.46v-17.33c0-2.51,0.47-4.66,1.41-6.44c0.94-1.78,2.28-3.14,4.02-4.08c1.74-0.94,3.78-1.41,6.12-1.41
		c3.14,0,5.58,0.89,7.31,2.67c1.74,1.78,2.61,4.41,2.61,7.88v18.71h4.46v-19.15c0-3.18-0.58-5.82-1.73-7.91
		C-657.1,213.98-658.69,212.42-660.72,211.4z"/>
	<path class="st1" d="M-618.43,215.35c1.88-1.07,4-1.6,6.34-1.6c1.97,0,3.79,0.4,5.46,1.19c1.67,0.8,3.08,2.03,4.21,3.7l3.33-2.26
		c-1.3-2.18-3.08-3.81-5.34-4.9c-2.26-1.09-4.79-1.63-7.6-1.63c-3.27,0-6.18,0.71-8.76,2.14c-2.57,1.42-4.59,3.39-6.06,5.9
		c-1.47,2.51-2.2,5.42-2.2,8.73c0,3.26,0.73,6.16,2.2,8.7c1.46,2.53,3.48,4.52,6.06,5.96s5.49,2.17,8.76,2.17
		c2.8,0,5.34-0.55,7.6-1.66c2.26-1.11,4.04-2.73,5.34-4.87l-3.33-2.26c-1.13,1.63-2.53,2.85-4.21,3.64
		c-1.67,0.8-3.49,1.19-5.46,1.19c-2.34,0-4.46-0.53-6.34-1.6c-1.88-1.07-3.37-2.56-4.46-4.49c-1.09-1.92-1.63-4.18-1.63-6.78
		s0.54-4.86,1.63-6.78C-621.8,217.92-620.31,216.42-618.43,215.35z"/>
	<rect x="-590.87" y="196.55" class="st1" width="4.46" height="46.59"/>
	<path class="st1" d="M-548.67,227.44c0,2.51-0.45,4.67-1.35,6.47c-0.9,1.8-2.2,3.17-3.89,4.11c-1.69,0.94-3.69,1.41-6,1.41
		c-3.14,0-5.58-0.89-7.31-2.67c-1.74-1.78-2.61-4.43-2.61-7.94v-18.65h-4.46v19.15c0,3.14,0.58,5.76,1.73,7.85
		c1.15,2.09,2.77,3.66,4.87,4.71c2.09,1.05,4.54,1.57,7.35,1.57c2.93,0,5.49-0.68,7.69-2.04c1.77-1.1,3.15-2.56,4.18-4.35v6.08h4.27
		v-32.96h-4.46V227.44z"/>
	<path class="st1" d="M-510.72,211.96c-2.41-1.4-5.16-2.1-8.26-2.1c-3.06,0-5.81,0.72-8.26,2.17c-2.45,1.44-4.37,3.42-5.78,5.93
		c-1.4,2.51-2.1,5.4-2.1,8.67c0,3.26,0.73,6.16,2.2,8.7c1.46,2.53,3.49,4.52,6.09,5.96c2.59,1.44,5.61,2.17,9.04,2.17
		c2.64,0,5.06-0.46,7.25-1.38c2.2-0.92,4.03-2.26,5.49-4.02l-2.51-2.89c-1.26,1.47-2.75,2.55-4.49,3.26
		c-1.74,0.71-3.61,1.07-5.62,1.07c-2.55,0-4.83-0.53-6.81-1.6c-1.99-1.07-3.54-2.55-4.65-4.46c-0.93-1.59-1.44-3.41-1.6-5.43h27.68
		c0-0.25,0.01-0.49,0.03-0.72c0.02-0.23,0.03-0.45,0.03-0.66c0-3.31-0.69-6.23-2.07-8.76
		C-506.42,215.33-508.31,213.37-510.72,211.96z M-529.27,219.65c1-1.88,2.41-3.35,4.21-4.4c1.8-1.05,3.83-1.57,6.09-1.57
		c2.3,0,4.33,0.52,6.09,1.57c1.76,1.05,3.15,2.5,4.18,4.36c0.83,1.51,1.31,3.2,1.47,5.05h-23.46
		C-530.54,222.83-530.07,221.15-529.27,219.65z"/>
	<path class="st1" d="M-459.17,227.09c-1.28-0.61-2.68-1.09-4.21-1.44c-1.53-0.36-3.06-0.66-4.58-0.91
		c-1.53-0.25-2.93-0.57-4.21-0.97c-1.28-0.4-2.3-0.95-3.08-1.66c-0.77-0.71-1.16-1.7-1.16-2.95c0-1.59,0.7-2.9,2.1-3.92
		c1.4-1.03,3.59-1.54,6.56-1.54c1.67,0,3.35,0.22,5.02,0.66s3.24,1.16,4.71,2.17l1.95-3.58c-1.38-0.92-3.14-1.66-5.27-2.23
		c-2.13-0.56-4.27-0.85-6.4-0.85c-2.8,0-5.18,0.41-7.13,1.22c-1.95,0.82-3.42,1.94-4.43,3.36c-1,1.42-1.51,3.04-1.51,4.83
		c0,1.88,0.39,3.39,1.16,4.52c0.77,1.13,1.79,2.02,3.05,2.67c1.26,0.65,2.65,1.14,4.17,1.48c1.53,0.34,3.07,0.63,4.61,0.88
		c1.55,0.25,2.95,0.56,4.21,0.91c1.26,0.36,2.27,0.88,3.05,1.57c0.77,0.69,1.16,1.64,1.16,2.86c0,1.63-0.69,2.94-2.07,3.92
		c-1.38,0.98-3.64,1.48-6.78,1.48c-2.3,0-4.5-0.37-6.59-1.1c-2.09-0.73-3.81-1.6-5.15-2.6l-2.01,3.52c1.38,1.17,3.29,2.15,5.71,2.92
		c2.43,0.77,5,1.16,7.72,1.16c2.89,0,5.35-0.39,7.38-1.16c2.03-0.77,3.58-1.86,4.65-3.27c1.07-1.4,1.6-3.07,1.6-4.99
		c0-1.8-0.39-3.25-1.16-4.36C-456.87,228.56-457.9,227.7-459.17,227.09z"/>
	<path class="st1" d="M-444.51,196.55c-0.92,0-1.69,0.3-2.32,0.91c-0.63,0.61-0.94,1.35-0.94,2.23c0,0.88,0.31,1.63,0.94,2.26
		c0.63,0.63,1.4,0.94,2.32,0.94c0.96,0,1.75-0.31,2.35-0.94c0.61-0.63,0.91-1.4,0.91-2.32c0-0.88-0.31-1.61-0.94-2.2
		C-442.82,196.84-443.59,196.55-444.51,196.55z"/>
	<rect x="-446.77" y="210.17" class="st1" width="4.46" height="32.96"/>
	<path class="st1" d="M-407.75,212.03c-2.53-1.44-5.43-2.17-8.7-2.17c-3.22,0-6.09,0.71-8.6,2.14c-2.51,1.42-4.5,3.39-5.96,5.9
		c-1.47,2.51-2.2,5.42-2.2,8.73c0,3.22,0.73,6.11,2.2,8.66c1.46,2.55,3.45,4.55,5.96,6s5.38,2.17,8.6,2.17
		c3.22,0,6.11-0.72,8.66-2.17c2.55-1.44,4.55-3.43,6-5.96c1.44-2.53,2.17-5.43,2.17-8.7c0-3.31-0.72-6.21-2.17-8.7
		C-403.23,215.44-405.22,213.47-407.75,212.03z M-405.74,233.37c-1.07,1.95-2.52,3.45-4.36,4.52c-1.84,1.07-3.95,1.6-6.34,1.6
		c-2.34,0-4.43-0.53-6.25-1.6c-1.82-1.07-3.28-2.57-4.36-4.52c-1.09-1.95-1.63-4.2-1.63-6.75c0-2.6,0.54-4.86,1.63-6.78
		c1.09-1.92,2.55-3.42,4.4-4.49c1.84-1.07,3.93-1.6,6.28-1.6c2.34,0,4.44,0.53,6.28,1.6c1.84,1.07,3.3,2.56,4.36,4.49
		c1.07,1.93,1.6,4.19,1.6,6.78C-404.14,229.18-404.67,231.43-405.74,233.37z"/>
	<path class="st1" d="M-361.86,216.08c-1.15-2.09-2.74-3.65-4.77-4.68c-2.03-1.02-4.39-1.54-7.06-1.54c-3.18,0-5.92,0.68-8.22,2.04
		c-1.85,1.1-3.29,2.53-4.33,4.29v-6.01h-4.27v32.96h4.46v-17.33c0-2.51,0.47-4.66,1.41-6.44c0.94-1.78,2.28-3.14,4.02-4.08
		c1.74-0.94,3.78-1.41,6.12-1.41c3.14,0,5.58,0.89,7.31,2.67c1.74,1.78,2.61,4.41,2.61,7.88v18.71h4.46v-19.15
		C-360.13,220.81-360.71,218.17-361.86,216.08z"/>
	<circle class="st1" cx="-641.28" cy="223.82" r="3.21"/>
	<circle class="st1" cx="-491.42" cy="223.82" r="3.21"/>
</g>
<path class="st1" d="M-846.33,217.85l8.98,60.42l0.57-0.08h41.05l0.58-0.41l19.82-55.69l28.89,13.7l0.38-0.44l11.26-15.7l0.3-0.43
	l-0.25-0.44l0,0l-0.02-0.01l-25.4-39.51v-18l-0.96-0.51l-10.9,7.25l-41.83,15.15l-0.24,0.16l-32.07,34.04 M-735.98,219.17
	l-10.35,14.43l-13.5-51.53L-735.98,219.17z M-771.47,169.09l0.51-0.19l-0.05-0.12l9.59-6.38v16.63l-77.68,35.06L-771.47,169.09z
	 M-813.3,184.25l36.94-13.38l-65.22,43.4L-813.3,184.25z M-845.04,218.13l82.24-37.12l-73.63,95.04L-845.04,218.13z M-796.17,276.95
	h-39.4l72.9-94.1L-776.25,221l-0.25,0.53l0.05,0.03L-796.17,276.95z M-761.09,182.11l13.57,51.8l-27.38-12.99L-761.09,182.11z"/>
<g>
	<g>
		<rect x="-302.82" y="303.38" class="st1" width="2.97" height="21.95"/>
		<path class="st1" d="M-301.32,294.31c-0.61,0-1.13,0.2-1.55,0.61c-0.42,0.4-0.63,0.9-0.63,1.48c0,0.59,0.21,1.09,0.63,1.51
			c0.42,0.42,0.93,0.63,1.55,0.63c0.64,0,1.16-0.21,1.57-0.63c0.4-0.42,0.61-0.93,0.61-1.55c0-0.59-0.21-1.07-0.63-1.46
			C-300.19,294.5-300.71,294.31-301.32,294.31z"/>
		<path class="st1" d="M-275.67,304.2c-1.35-0.68-2.92-1.02-4.7-1.02c-2.12,0-3.94,0.45-5.48,1.36c-1.23,0.73-2.19,1.68-2.89,2.86
			v-4.01h-2.84v21.95h2.97v-11.54c0-1.67,0.31-3.1,0.94-4.29c0.63-1.18,1.52-2.09,2.68-2.72c1.16-0.63,2.52-0.94,4.08-0.94
			c2.09,0,3.71,0.59,4.87,1.78c1.16,1.19,1.74,2.93,1.74,5.25v12.46h2.97v-12.75c0-2.12-0.38-3.87-1.15-5.27
			C-273.26,305.92-274.32,304.88-275.67,304.2z"/>
		<path class="st1" d="M-247.51,306.83c1.25-0.71,2.66-1.07,4.22-1.07c1.31,0,2.52,0.27,3.64,0.79c1.11,0.53,2.05,1.35,2.8,2.47
			l2.22-1.51c-0.86-1.45-2.05-2.54-3.55-3.26c-1.51-0.72-3.19-1.09-5.06-1.09c-2.17,0-4.12,0.47-5.83,1.42
			c-1.71,0.95-3.06,2.26-4.03,3.93c-0.98,1.67-1.46,3.61-1.46,5.81c0,2.17,0.49,4.1,1.46,5.79c0.98,1.69,2.32,3.01,4.03,3.97
			s3.66,1.44,5.83,1.44c1.87,0,3.55-0.37,5.06-1.11c1.51-0.74,2.69-1.82,3.55-3.24l-2.22-1.51c-0.75,1.09-1.69,1.9-2.8,2.42
			c-1.11,0.53-2.33,0.79-3.64,0.79c-1.56,0-2.97-0.36-4.22-1.07c-1.25-0.71-2.24-1.71-2.97-2.99c-0.73-1.28-1.09-2.79-1.09-4.52
			s0.36-3.23,1.09-4.52C-249.75,308.54-248.76,307.54-247.51,306.83z"/>
		<rect x="-229.16" y="294.31" class="st1" width="2.97" height="31.02"/>
		<path class="st1" d="M-201.06,314.88c0,1.67-0.3,3.11-0.9,4.31c-0.6,1.2-1.46,2.11-2.59,2.74c-1.13,0.63-2.46,0.94-3.99,0.94
			c-2.09,0-3.71-0.59-4.87-1.78c-1.16-1.18-1.74-2.95-1.74-5.29v-12.42h-2.97v12.75c0,2.09,0.38,3.83,1.15,5.23
			c0.77,1.39,1.85,2.44,3.24,3.14c1.39,0.7,3.02,1.05,4.89,1.05c1.95,0,3.66-0.45,5.12-1.36c1.18-0.73,2.1-1.7,2.78-2.9v4.05h2.84
			v-21.95h-2.97V314.88z"/>
		<path class="st1" d="M-175.79,304.57c-1.6-0.93-3.44-1.4-5.5-1.4c-2.04,0-3.87,0.48-5.5,1.44c-1.63,0.96-2.91,2.28-3.85,3.95
			c-0.93,1.67-1.4,3.6-1.4,5.77c0,2.17,0.49,4.1,1.46,5.79c0.98,1.69,2.33,3.01,4.06,3.97c1.73,0.96,3.73,1.44,6.02,1.44
			c1.76,0,3.37-0.31,4.83-0.92c1.46-0.61,2.68-1.51,3.66-2.68l-1.67-1.92c-0.84,0.98-1.83,1.7-2.99,2.17
			c-1.16,0.47-2.4,0.71-3.74,0.71c-1.7,0-3.21-0.36-4.54-1.07c-1.32-0.71-2.36-1.7-3.09-2.97c-0.62-1.06-0.96-2.27-1.06-3.62h18.43
			c0-0.17,0.01-0.33,0.02-0.48c0.01-0.15,0.02-0.3,0.02-0.44c0-2.2-0.46-4.15-1.38-5.83C-172.92,306.82-174.18,305.51-175.79,304.57
			z M-188.14,309.7c0.67-1.25,1.6-2.23,2.8-2.93c1.2-0.7,2.55-1.05,4.06-1.05c1.53,0,2.88,0.35,4.06,1.05
			c1.17,0.7,2.1,1.67,2.78,2.91c0.55,1.01,0.87,2.13,0.98,3.37h-15.62C-188.98,311.81-188.67,310.69-188.14,309.7z"/>
		<path class="st1" d="M-141.46,314.65c-0.85-0.4-1.78-0.72-2.8-0.96c-1.02-0.24-2.03-0.44-3.05-0.61c-1.02-0.17-1.95-0.38-2.8-0.65
			c-0.85-0.26-1.53-0.63-2.05-1.11c-0.52-0.47-0.77-1.13-0.77-1.96c0-1.06,0.47-1.93,1.4-2.61c0.93-0.68,2.39-1.02,4.37-1.02
			c1.11,0,2.23,0.15,3.34,0.44c1.11,0.29,2.16,0.77,3.14,1.44l1.3-2.38c-0.92-0.61-2.09-1.11-3.51-1.48
			c-1.42-0.38-2.84-0.56-4.26-0.56c-1.87,0-3.45,0.27-4.75,0.82c-1.3,0.54-2.28,1.29-2.95,2.24c-0.67,0.95-1,2.02-1,3.22
			c0,1.25,0.26,2.26,0.77,3.01c0.52,0.75,1.19,1.35,2.03,1.78c0.84,0.43,1.76,0.76,2.78,0.98c1.02,0.22,2.04,0.42,3.07,0.59
			c1.03,0.17,1.97,0.37,2.8,0.61c0.84,0.24,1.51,0.59,2.03,1.05c0.52,0.46,0.77,1.09,0.77,1.9c0,1.09-0.46,1.96-1.38,2.61
			c-0.92,0.65-2.42,0.98-4.52,0.98c-1.53,0-3-0.24-4.39-0.73c-1.39-0.49-2.54-1.07-3.43-1.73l-1.34,2.34
			c0.92,0.78,2.19,1.43,3.8,1.94c1.62,0.52,3.33,0.77,5.14,0.77c1.92,0,3.56-0.26,4.91-0.77c1.35-0.52,2.38-1.24,3.09-2.17
			c0.71-0.93,1.07-2.04,1.07-3.32c0-1.2-0.26-2.17-0.77-2.91C-139.93,315.63-140.61,315.05-141.46,314.65z"/>
		<path class="st1" d="M-131.7,294.31c-0.61,0-1.13,0.2-1.55,0.61c-0.42,0.4-0.63,0.9-0.63,1.48c0,0.59,0.21,1.09,0.63,1.51
			c0.42,0.42,0.93,0.63,1.55,0.63c0.64,0,1.16-0.21,1.57-0.63c0.4-0.42,0.61-0.93,0.61-1.55c0-0.59-0.21-1.07-0.63-1.46
			C-130.57,294.5-131.09,294.31-131.7,294.31z"/>
		<rect x="-133.2" y="303.38" class="st1" width="2.97" height="21.95"/>
		<path class="st1" d="M-107.22,304.62c-1.69-0.96-3.62-1.44-5.79-1.44c-2.15,0-4.06,0.47-5.73,1.42c-1.67,0.95-3,2.26-3.97,3.93
			c-0.98,1.67-1.46,3.61-1.46,5.81c0,2.15,0.49,4.07,1.46,5.77c0.98,1.7,2.3,3.03,3.97,3.99s3.58,1.44,5.73,1.44
			c2.15,0,4.07-0.48,5.77-1.44c1.7-0.96,3.03-2.29,3.99-3.97c0.96-1.69,1.44-3.62,1.44-5.79c0-2.2-0.48-4.13-1.44-5.79
			C-104.21,306.89-105.53,305.58-107.22,304.62z M-105.88,318.83c-0.71,1.3-1.68,2.3-2.91,3.01c-1.23,0.71-2.63,1.07-4.22,1.07
			c-1.56,0-2.95-0.36-4.16-1.07c-1.21-0.71-2.18-1.71-2.91-3.01c-0.73-1.3-1.09-2.79-1.09-4.49c0-1.73,0.36-3.23,1.09-4.52
			c0.72-1.28,1.7-2.28,2.93-2.99c1.23-0.71,2.62-1.07,4.18-1.07c1.56,0,2.95,0.36,4.18,1.07c1.23,0.71,2.2,1.71,2.91,2.99
			c0.71,1.28,1.07,2.79,1.07,4.52C-104.81,316.04-105.17,317.54-105.88,318.83z"/>
		<path class="st1" d="M-76.66,307.31c-0.77-1.39-1.83-2.43-3.18-3.12c-1.35-0.68-2.92-1.02-4.7-1.02c-2.12,0-3.94,0.45-5.48,1.36
			c-1.23,0.73-2.19,1.68-2.88,2.86v-4.01h-2.84v21.95h2.97v-11.54c0-1.67,0.31-3.1,0.94-4.29c0.63-1.18,1.52-2.09,2.68-2.72
			c1.16-0.63,2.51-0.94,4.08-0.94c2.09,0,3.71,0.59,4.87,1.78c1.16,1.19,1.74,2.93,1.74,5.25v12.46h2.97v-12.75
			C-75.51,310.46-75.89,308.71-76.66,307.31z"/>
		<circle class="st1" cx="-262.73" cy="312.47" r="2.14"/>
		<circle class="st1" cx="-162.93" cy="312.47" r="2.14"/>
	</g>
	<path class="st1" d="M-241.24,219.42l9.12,61.31l0.57-0.09h41.66l0.59-0.42l20.12-56.51l29.32,13.9l0.38-0.45l11.43-15.93l0.3-0.44
		l-0.26-0.45l0,0l-0.02-0.01l-25.78-40.1v-18.26l-0.97-0.52l-11.06,7.36l-42.45,15.38l-0.24,0.16l-32.54,34.54 M-129.26,220.76
		l-10.5,14.64l-13.7-52.29L-129.26,220.76z M-165.28,169.94l0.52-0.19l-0.05-0.13l9.74-6.48v16.87l-78.83,35.58L-165.28,169.94z
		 M-207.73,185.32l37.49-13.58l-66.18,44.03L-207.73,185.32z M-239.93,219.7l83.45-37.67l-74.72,96.44L-239.93,219.7z
		 M-190.33,279.39h-39.98l73.98-95.48l-13.78,38.71l-0.26,0.54l0.05,0.03L-190.33,279.39z M-154.74,183.15l13.77,52.56l-27.79-13.18
		L-154.74,183.15z"/>
</g>
<path class="st1" d="M25.62,202.74L32.35,248l0.42-0.06h30.75l0.44-0.31l14.85-41.71l21.64,10.26l0.28-0.33l8.43-11.76l0.22-0.32
	l-0.19-0.33l0,0l-0.01-0.01l-19.03-29.6v-13.48l-0.72-0.38l-8.16,5.43l-31.34,11.35l-0.18,0.12l-24.02,25.5 M108.28,203.73
	l-7.75,10.81l-10.11-38.6L108.28,203.73z M81.69,166.22l0.38-0.14l-0.03-0.09l7.19-4.78v12.46l-58.19,26.26L81.69,166.22z
	 M50.35,177.57l27.67-10.02l-48.85,32.51L50.35,177.57z M26.58,202.95l61.6-27.81l-55.15,71.19L26.58,202.95z M63.19,247.01H33.68
	l54.61-70.48L78.11,205.1l-0.19,0.4l0.04,0.02L63.19,247.01z M89.46,175.97l10.16,38.8l-20.51-9.73L89.46,175.97z"/>
</svg>
