<?xml version="1.0" encoding="utf-8"?>
<!-- Generator: Adobe Illustrator 25.4.7, SVG Export Plug-In . SVG Version: 6.00 Build 0)  -->
<svg version="1.1" id="Layer_1" xmlns="http://www.w3.org/2000/svg" xmlns:xlink="http://www.w3.org/1999/xlink" x="0px" y="0px"
	 viewBox="0 0 132 132" style="enable-background:new 0 0 132 132;" xml:space="preserve">
<style type="text/css">
	.st0{fill:#231F20;}
	.st1{fill:#FFFFFF;}
</style>
<path class="st0" d="M25.62,61.74L32.35,107l0.42-0.06h30.75l0.44-0.31L78.8,64.92l21.64,10.26l0.28-0.33l8.43-11.76l0.22-0.32
	l-0.19-0.33l0,0l-0.01-0.01l-19.03-29.6V19.34l-0.72-0.38l-8.16,5.43L49.94,35.74l-0.18,0.12l-24.02,25.5 M108.28,62.73l-7.75,10.81
	l-10.11-38.6L108.28,62.73z M81.69,25.22l0.38-0.14l-0.03-0.09l7.19-4.78v12.46L31.04,58.93L81.69,25.22z M50.35,36.57l27.67-10.02
	L29.18,59.05L50.35,36.57z M26.58,61.95l61.6-27.81l-55.15,71.19L26.58,61.95z M63.19,106.01H33.68l54.61-70.48L78.11,64.1
	l-0.19,0.4l0.04,0.02L63.19,106.01z M89.46,34.97l10.16,38.8l-20.51-9.73L89.46,34.97z"/>
</svg>
