<?xml version="1.0" encoding="utf-8"?>
<!-- Generator: Adobe Illustrator 25.4.7, SVG Export Plug-In . SVG Version: 6.00 Build 0)  -->
<svg version="1.1" id="Layer_1" xmlns="http://www.w3.org/2000/svg" xmlns:xlink="http://www.w3.org/1999/xlink" x="0px" y="0px"
	 viewBox="0 0 243 172" style="enable-background:new 0 0 243 172;" xml:space="preserve">
<style type="text/css">
	.st0{fill:#231F20;}
	.st1{fill:#FFFFFF;}
</style>
<g>
	<g>
		<rect x="8.18" y="145.88" class="st1" width="2.97" height="21.95"/>
		<path class="st1" d="M9.68,136.81c-0.61,0-1.13,0.2-1.55,0.61c-0.42,0.4-0.63,0.9-0.63,1.48c0,0.59,0.21,1.09,0.63,1.51
			c0.42,0.42,0.93,0.63,1.55,0.63c0.64,0,1.16-0.21,1.57-0.63c0.4-0.42,0.61-0.93,0.61-1.55c0-0.59-0.21-1.07-0.63-1.46
			C10.81,137,10.29,136.81,9.68,136.81z"/>
		<path class="st1" d="M35.33,146.7c-1.35-0.68-2.92-1.02-4.7-1.02c-2.12,0-3.94,0.45-5.48,1.36c-1.23,0.73-2.19,1.68-2.89,2.86
			v-4.01h-2.84v21.95h2.97v-11.54c0-1.67,0.31-3.1,0.94-4.29c0.63-1.18,1.52-2.09,2.68-2.72c1.16-0.63,2.52-0.94,4.08-0.94
			c2.09,0,3.71,0.59,4.87,1.78c1.16,1.19,1.73,2.93,1.73,5.25v12.46h2.97v-12.75c0-2.12-0.38-3.87-1.15-5.27
			C37.74,148.42,36.68,147.38,35.33,146.7z"/>
		<path class="st1" d="M63.49,149.33c1.25-0.71,2.66-1.07,4.22-1.07c1.31,0,2.52,0.27,3.64,0.79c1.11,0.53,2.05,1.35,2.8,2.47
			l2.22-1.51c-0.86-1.45-2.05-2.54-3.55-3.26c-1.51-0.72-3.19-1.09-5.06-1.09c-2.17,0-4.12,0.47-5.83,1.42
			c-1.71,0.95-3.06,2.26-4.03,3.93c-0.98,1.67-1.46,3.61-1.46,5.81c0,2.17,0.49,4.1,1.46,5.79c0.98,1.69,2.32,3.01,4.03,3.97
			c1.71,0.96,3.66,1.44,5.83,1.44c1.87,0,3.55-0.37,5.06-1.11c1.51-0.74,2.69-1.82,3.55-3.24l-2.22-1.51
			c-0.75,1.09-1.69,1.9-2.8,2.42c-1.11,0.53-2.33,0.79-3.64,0.79c-1.56,0-2.97-0.36-4.22-1.07c-1.25-0.71-2.24-1.71-2.97-2.99
			c-0.73-1.28-1.09-2.79-1.09-4.52c0-1.73,0.36-3.23,1.09-4.52C61.25,151.04,62.24,150.04,63.49,149.33z"/>
		<rect x="81.84" y="136.81" class="st1" width="2.97" height="31.02"/>
		<path class="st1" d="M109.94,157.38c0,1.67-0.3,3.11-0.9,4.31c-0.6,1.2-1.46,2.11-2.59,2.74c-1.13,0.63-2.46,0.94-3.99,0.94
			c-2.09,0-3.71-0.59-4.87-1.78c-1.16-1.18-1.74-2.95-1.74-5.29v-12.42h-2.97v12.75c0,2.09,0.38,3.83,1.15,5.23
			c0.77,1.39,1.85,2.44,3.24,3.14c1.39,0.7,3.02,1.05,4.89,1.05c1.95,0,3.66-0.45,5.12-1.36c1.18-0.73,2.1-1.7,2.78-2.9v4.05h2.84
			v-21.95h-2.97V157.38z"/>
		<path class="st1" d="M135.21,147.07c-1.6-0.93-3.44-1.4-5.5-1.4c-2.04,0-3.87,0.48-5.5,1.44c-1.63,0.96-2.91,2.28-3.85,3.95
			c-0.93,1.67-1.4,3.6-1.4,5.77c0,2.17,0.49,4.1,1.46,5.79c0.98,1.69,2.33,3.01,4.06,3.97c1.73,0.96,3.73,1.44,6.02,1.44
			c1.76,0,3.37-0.31,4.83-0.92c1.46-0.61,2.68-1.51,3.66-2.68l-1.67-1.92c-0.84,0.98-1.83,1.7-2.99,2.17
			c-1.16,0.47-2.4,0.71-3.74,0.71c-1.7,0-3.21-0.36-4.54-1.07c-1.32-0.71-2.36-1.7-3.09-2.97c-0.62-1.06-0.96-2.27-1.06-3.62h18.43
			c0-0.17,0.01-0.33,0.02-0.48c0.01-0.15,0.02-0.3,0.02-0.44c0-2.2-0.46-4.15-1.38-5.83C138.08,149.32,136.82,148.01,135.21,147.07z
			 M122.86,152.2c0.67-1.25,1.6-2.23,2.8-2.93c1.2-0.7,2.55-1.05,4.06-1.05c1.53,0,2.88,0.35,4.06,1.05c1.17,0.7,2.1,1.67,2.78,2.91
			c0.55,1.01,0.87,2.13,0.98,3.37h-15.62C122.02,154.31,122.33,153.19,122.86,152.2z"/>
		<path class="st1" d="M169.54,157.15c-0.85-0.4-1.78-0.72-2.8-0.96c-1.02-0.24-2.03-0.44-3.05-0.61c-1.02-0.17-1.95-0.38-2.8-0.65
			c-0.85-0.26-1.53-0.63-2.05-1.11c-0.52-0.47-0.77-1.13-0.77-1.96c0-1.06,0.47-1.93,1.4-2.61c0.93-0.68,2.39-1.02,4.37-1.02
			c1.11,0,2.23,0.15,3.34,0.44c1.11,0.29,2.16,0.77,3.14,1.44l1.3-2.38c-0.92-0.61-2.09-1.11-3.51-1.48
			c-1.42-0.38-2.84-0.56-4.26-0.56c-1.87,0-3.45,0.27-4.75,0.82c-1.3,0.54-2.28,1.29-2.95,2.24c-0.67,0.95-1,2.02-1,3.22
			c0,1.25,0.26,2.26,0.77,3.01c0.52,0.75,1.19,1.35,2.03,1.78c0.84,0.43,1.76,0.76,2.78,0.98c1.02,0.22,2.04,0.42,3.07,0.59
			c1.03,0.17,1.97,0.37,2.8,0.61c0.84,0.24,1.51,0.59,2.03,1.05c0.52,0.46,0.77,1.09,0.77,1.9c0,1.09-0.46,1.96-1.38,2.61
			c-0.92,0.66-2.42,0.98-4.52,0.98c-1.53,0-3-0.24-4.39-0.73c-1.39-0.49-2.54-1.07-3.43-1.73l-1.34,2.34
			c0.92,0.78,2.19,1.43,3.8,1.94c1.62,0.52,3.33,0.77,5.14,0.77c1.92,0,3.56-0.26,4.91-0.77c1.35-0.52,2.38-1.24,3.09-2.17
			c0.71-0.93,1.07-2.04,1.07-3.32c0-1.2-0.26-2.17-0.77-2.91C171.07,158.13,170.39,157.55,169.54,157.15z"/>
		<path class="st1" d="M179.3,136.81c-0.61,0-1.13,0.2-1.55,0.61c-0.42,0.4-0.63,0.9-0.63,1.48c0,0.59,0.21,1.09,0.63,1.51
			c0.42,0.42,0.93,0.63,1.55,0.63c0.64,0,1.16-0.21,1.57-0.63c0.4-0.42,0.61-0.93,0.61-1.55c0-0.59-0.21-1.07-0.63-1.46
			C180.43,137,179.91,136.81,179.3,136.81z"/>
		<rect x="177.8" y="145.88" class="st1" width="2.97" height="21.95"/>
		<path class="st1" d="M203.78,147.12c-1.69-0.96-3.62-1.44-5.79-1.44c-2.15,0-4.06,0.47-5.73,1.42c-1.67,0.95-3,2.26-3.97,3.93
			c-0.98,1.67-1.46,3.61-1.46,5.81c0,2.15,0.49,4.07,1.46,5.77c0.98,1.7,2.3,3.03,3.97,3.99c1.67,0.96,3.58,1.44,5.73,1.44
			c2.15,0,4.07-0.48,5.77-1.44c1.7-0.96,3.03-2.29,3.99-3.97c0.96-1.69,1.44-3.62,1.44-5.79c0-2.2-0.48-4.13-1.44-5.79
			C206.79,149.39,205.47,148.08,203.78,147.12z M205.12,161.33c-0.71,1.3-1.68,2.3-2.91,3.01c-1.23,0.71-2.63,1.07-4.22,1.07
			c-1.56,0-2.95-0.36-4.16-1.07c-1.21-0.71-2.18-1.71-2.91-3.01c-0.73-1.3-1.09-2.79-1.09-4.49c0-1.73,0.36-3.23,1.09-4.52
			c0.72-1.28,1.7-2.28,2.93-2.99c1.23-0.71,2.62-1.07,4.18-1.07c1.56,0,2.95,0.36,4.18,1.07c1.23,0.71,2.2,1.71,2.91,2.99
			c0.71,1.28,1.07,2.79,1.07,4.52C206.19,158.54,205.83,160.04,205.12,161.33z"/>
		<path class="st1" d="M234.34,149.81c-0.77-1.39-1.83-2.43-3.18-3.12c-1.35-0.68-2.92-1.02-4.7-1.02c-2.12,0-3.94,0.45-5.48,1.36
			c-1.23,0.73-2.19,1.68-2.88,2.86v-4.01h-2.84v21.95h2.97v-11.54c0-1.67,0.31-3.1,0.94-4.29c0.63-1.18,1.52-2.09,2.68-2.72
			c1.16-0.63,2.51-0.94,4.08-0.94c2.09,0,3.71,0.59,4.87,1.78c1.16,1.19,1.74,2.93,1.74,5.25v12.46h2.97v-12.75
			C235.49,152.96,235.11,151.21,234.34,149.81z"/>
		<circle class="st1" cx="48.27" cy="154.97" r="2.14"/>
		<circle class="st1" cx="148.07" cy="154.97" r="2.14"/>
	</g>
	<path class="st1" d="M69.76,61.92l9.12,61.31l0.57-0.09h41.66l0.59-0.42l20.12-56.51l29.32,13.9l0.38-0.45l11.43-15.93l0.3-0.44
		l-0.26-0.45l0,0l-0.02-0.01l-25.78-40.1V4.48l-0.97-0.52l-11.06,7.36l-42.45,15.38l-0.24,0.16L69.92,61.39 M181.74,63.26
		l-10.5,14.64l-13.7-52.29L181.74,63.26z M145.72,12.44l0.52-0.19l-0.05-0.13l9.74-6.48v16.87L77.11,58.1L145.72,12.44z
		 M103.27,27.82l37.49-13.58L74.58,58.27L103.27,27.82z M71.07,62.2l83.45-37.67l-74.72,96.44L71.07,62.2z M120.67,121.89H80.68
		l73.98-95.48l-13.78,38.71l-0.26,0.54l0.05,0.03L120.67,121.89z M156.26,25.65l13.77,52.56l-27.79-13.18L156.26,25.65z"/>
</g>
</svg>
