<?xml version="1.0" encoding="utf-8"?>
<!-- Generator: Adobe Illustrator 25.4.7, SVG Export Plug-In . SVG Version: 6.00 Build 0)  -->
<svg version="1.1" id="Layer_1" xmlns="http://www.w3.org/2000/svg" xmlns:xlink="http://www.w3.org/1999/xlink" x="0px" y="0px"
	 viewBox="0 0 519 132" style="enable-background:new 0 0 519 132;" xml:space="preserve">
<style type="text/css">
	.st0{fill:#231F20;}
	.st1{fill:#FFFFFF;}
</style>
<g>
	<rect x="159" y="56.17" class="st0" width="4.46" height="32.96"/>
	<path class="st0" d="M161.27,42.55c-0.92,0-1.7,0.3-2.32,0.91c-0.63,0.61-0.94,1.35-0.94,2.23c0,0.88,0.31,1.63,0.94,2.26
		c0.63,0.63,1.4,0.94,2.32,0.94c0.96,0,1.75-0.31,2.35-0.94c0.61-0.63,0.91-1.4,0.91-2.32c0-0.88-0.31-1.61-0.94-2.2
		C162.96,42.84,162.19,42.55,161.27,42.55z"/>
	<path class="st0" d="M199.78,57.4c-2.03-1.02-4.39-1.54-7.06-1.54c-3.18,0-5.92,0.68-8.22,2.04c-1.85,1.1-3.29,2.53-4.33,4.29
		v-6.01h-4.27v32.96h4.46V71.81c0-2.51,0.47-4.66,1.41-6.44c0.94-1.78,2.28-3.14,4.02-4.08c1.74-0.94,3.78-1.41,6.12-1.41
		c3.14,0,5.58,0.89,7.31,2.67c1.74,1.78,2.61,4.41,2.61,7.88v18.71h4.46V69.99c0-3.18-0.58-5.82-1.73-7.91
		C203.4,59.98,201.81,58.42,199.78,57.4z"/>
	<path class="st0" d="M242.07,61.35c1.88-1.07,4-1.6,6.34-1.6c1.97,0,3.79,0.4,5.46,1.19c1.67,0.8,3.08,2.03,4.21,3.7l3.33-2.26
		c-1.3-2.18-3.08-3.81-5.34-4.9c-2.26-1.09-4.79-1.63-7.6-1.63c-3.27,0-6.18,0.71-8.76,2.14c-2.57,1.42-4.59,3.39-6.06,5.9
		c-1.47,2.51-2.2,5.42-2.2,8.73c0,3.26,0.73,6.16,2.2,8.7c1.46,2.53,3.48,4.52,6.06,5.96s5.49,2.17,8.76,2.17
		c2.8,0,5.34-0.55,7.6-1.66c2.26-1.11,4.04-2.73,5.34-4.87l-3.33-2.26c-1.13,1.63-2.53,2.85-4.21,3.64
		c-1.67,0.8-3.49,1.19-5.46,1.19c-2.34,0-4.46-0.53-6.34-1.6c-1.88-1.07-3.37-2.56-4.46-4.49c-1.09-1.92-1.63-4.18-1.63-6.78
		s0.54-4.86,1.63-6.78C238.7,63.92,240.19,62.42,242.07,61.35z"/>
	<rect x="269.63" y="42.55" class="st0" width="4.46" height="46.59"/>
	<path class="st0" d="M311.83,73.44c0,2.51-0.45,4.67-1.35,6.47c-0.9,1.8-2.2,3.17-3.89,4.11c-1.69,0.94-3.69,1.41-6,1.41
		c-3.14,0-5.58-0.89-7.31-2.67c-1.74-1.78-2.61-4.43-2.61-7.94V56.17h-4.46v19.15c0,3.14,0.58,5.76,1.73,7.85
		c1.15,2.09,2.77,3.66,4.87,4.71c2.09,1.05,4.54,1.57,7.35,1.57c2.93,0,5.49-0.68,7.69-2.04c1.77-1.1,3.15-2.56,4.18-4.35v6.08h4.27
		V56.17h-4.46V73.44z"/>
	<path class="st0" d="M349.78,57.96c-2.41-1.4-5.16-2.1-8.26-2.1c-3.06,0-5.81,0.72-8.26,2.17c-2.45,1.44-4.37,3.42-5.78,5.93
		c-1.4,2.51-2.1,5.4-2.1,8.67c0,3.26,0.73,6.16,2.2,8.7c1.46,2.53,3.49,4.52,6.09,5.96c2.59,1.44,5.61,2.17,9.04,2.17
		c2.64,0,5.06-0.46,7.25-1.38c2.2-0.92,4.03-2.26,5.49-4.02l-2.51-2.89c-1.26,1.47-2.75,2.55-4.49,3.26
		c-1.74,0.71-3.61,1.07-5.62,1.07c-2.55,0-4.83-0.53-6.81-1.6c-1.99-1.07-3.54-2.55-4.65-4.46c-0.93-1.59-1.44-3.41-1.6-5.43h27.68
		c0-0.25,0.01-0.49,0.03-0.72c0.02-0.23,0.03-0.45,0.03-0.66c0-3.31-0.69-6.23-2.07-8.76C354.08,61.33,352.19,59.37,349.78,57.96z
		 M331.23,65.65c1-1.88,2.41-3.35,4.21-4.4c1.8-1.05,3.83-1.57,6.09-1.57c2.3,0,4.33,0.52,6.09,1.57c1.76,1.05,3.15,2.5,4.18,4.36
		c0.83,1.51,1.31,3.2,1.47,5.05H329.8C329.96,68.83,330.43,67.15,331.23,65.65z"/>
	<path class="st0" d="M401.33,73.09c-1.28-0.61-2.68-1.09-4.21-1.44c-1.53-0.36-3.06-0.66-4.58-0.91c-1.53-0.25-2.93-0.57-4.21-0.97
		c-1.28-0.4-2.3-0.95-3.08-1.66c-0.77-0.71-1.16-1.7-1.16-2.95c0-1.59,0.7-2.9,2.1-3.92c1.4-1.03,3.59-1.54,6.56-1.54
		c1.67,0,3.35,0.22,5.02,0.66s3.24,1.16,4.71,2.17l1.95-3.58c-1.38-0.92-3.14-1.66-5.27-2.23c-2.13-0.56-4.27-0.85-6.4-0.85
		c-2.8,0-5.18,0.41-7.13,1.22c-1.95,0.82-3.42,1.94-4.43,3.36c-1,1.42-1.51,3.04-1.51,4.83c0,1.88,0.39,3.39,1.16,4.52
		c0.77,1.13,1.79,2.02,3.05,2.67c1.26,0.65,2.65,1.14,4.17,1.48c1.53,0.34,3.07,0.63,4.61,0.88c1.55,0.25,2.95,0.56,4.21,0.91
		c1.26,0.36,2.27,0.88,3.05,1.57c0.77,0.69,1.16,1.64,1.16,2.86c0,1.63-0.69,2.94-2.07,3.92c-1.38,0.98-3.64,1.48-6.78,1.48
		c-2.3,0-4.5-0.37-6.59-1.1c-2.09-0.73-3.81-1.6-5.15-2.6l-2.01,3.52c1.38,1.17,3.29,2.15,5.71,2.92c2.43,0.77,5,1.16,7.72,1.16
		c2.89,0,5.35-0.39,7.38-1.16c2.03-0.77,3.58-1.86,4.65-3.27c1.07-1.4,1.6-3.07,1.6-4.99c0-1.8-0.39-3.25-1.16-4.36
		C403.63,74.56,402.6,73.7,401.33,73.09z"/>
	<path class="st0" d="M415.99,42.55c-0.92,0-1.69,0.3-2.32,0.91c-0.63,0.61-0.94,1.35-0.94,2.23c0,0.88,0.31,1.63,0.94,2.26
		c0.63,0.63,1.4,0.94,2.32,0.94c0.96,0,1.75-0.31,2.35-0.94c0.61-0.63,0.91-1.4,0.91-2.32c0-0.88-0.31-1.61-0.94-2.2
		C417.68,42.84,416.91,42.55,415.99,42.55z"/>
	<rect x="413.73" y="56.17" class="st0" width="4.46" height="32.96"/>
	<path class="st0" d="M452.75,58.03c-2.53-1.44-5.43-2.17-8.7-2.17c-3.22,0-6.09,0.71-8.6,2.14c-2.51,1.42-4.5,3.39-5.96,5.9
		c-1.47,2.51-2.2,5.42-2.2,8.73c0,3.22,0.73,6.11,2.2,8.66c1.46,2.55,3.45,4.55,5.96,6s5.38,2.17,8.6,2.17
		c3.22,0,6.11-0.72,8.66-2.17c2.55-1.44,4.55-3.43,6-5.96c1.44-2.53,2.17-5.43,2.17-8.7c0-3.31-0.72-6.21-2.17-8.7
		C457.27,61.44,455.28,59.47,452.75,58.03z M454.76,79.37c-1.07,1.95-2.52,3.45-4.36,4.52c-1.84,1.07-3.95,1.6-6.34,1.6
		c-2.34,0-4.43-0.53-6.25-1.6c-1.82-1.07-3.28-2.57-4.36-4.52c-1.09-1.95-1.63-4.2-1.63-6.75c0-2.6,0.54-4.86,1.63-6.78
		c1.09-1.92,2.55-3.42,4.4-4.49c1.84-1.07,3.93-1.6,6.28-1.6c2.34,0,4.44,0.53,6.28,1.6c1.84,1.07,3.3,2.56,4.36,4.49
		c1.07,1.93,1.6,4.19,1.6,6.78C456.36,75.18,455.83,77.43,454.76,79.37z"/>
	<path class="st0" d="M498.64,62.08c-1.15-2.09-2.74-3.65-4.77-4.68c-2.03-1.02-4.39-1.54-7.06-1.54c-3.18,0-5.92,0.68-8.22,2.04
		c-1.85,1.1-3.29,2.53-4.33,4.29v-6.01h-4.27v32.96h4.46V71.81c0-2.51,0.47-4.66,1.41-6.44c0.94-1.78,2.28-3.14,4.02-4.08
		c1.74-0.94,3.78-1.41,6.12-1.41c3.14,0,5.58,0.89,7.31,2.67c1.74,1.78,2.61,4.41,2.61,7.88v18.71h4.46V69.99
		C500.37,66.81,499.79,64.17,498.64,62.08z"/>
	<circle class="st0" cx="219.22" cy="69.82" r="3.21"/>
	<circle class="st0" cx="369.08" cy="69.82" r="3.21"/>
</g>
<path class="st0" d="M14.17,63.85l8.98,60.42l0.57-0.08h41.05l0.58-0.41l19.82-55.69l28.89,13.7l0.38-0.44l11.26-15.7l0.3-0.43
	l-0.25-0.44l0,0l-0.02-0.01l-25.4-39.51v-18l-0.96-0.51l-10.9,7.25L46.64,29.14l-0.24,0.16L14.33,63.33 M124.52,65.17L114.17,79.6
	l-13.5-51.53L124.52,65.17z M89.03,15.09l0.51-0.19l-0.05-0.12l9.59-6.38v16.63L21.41,60.09L89.03,15.09z M47.2,30.25l36.94-13.38
	l-65.22,43.4L47.2,30.25z M15.46,64.13L97.7,27.01l-73.63,95.04L15.46,64.13z M64.33,122.95h-39.4l72.9-94.1L84.25,67L84,67.53
	l0.05,0.03L64.33,122.95z M99.41,28.11l13.57,51.8L85.59,66.92L99.41,28.11z"/>
</svg>
